<?xml version="1.0" encoding="UTF-8"?>
<svg id="Layer_2" data-name="Layer 2" xmlns="http://www.w3.org/2000/svg" viewBox="0 0 142 142">
  <defs>
    <style>
      .cls-1 {
        fill: #fff;
      }

      .cls-2 {
        fill-rule: evenodd;
      }
    </style>
  </defs>
  <g id="icons">
    <g id="communities_icon" data-name="communities icon">
      <path d="m71,8c34.74,0,63,28.26,63,63,0,11.08-2.91,21.97-8.42,31.49-5.35,9.25-13.03,17.05-22.2,22.56-9.74,5.85-20.94,8.95-32.38,8.95s-22.64-3.09-32.38-8.95c-9.17-5.5-16.84-13.3-22.19-22.56-5.51-9.53-8.42-20.42-8.42-31.49,0-34.74,28.26-63,63-63m0-8C31.79,0,0,31.79,0,71c0,25.86,13.83,48.5,34.5,60.91,10.67,6.41,23.16,10.09,36.5,10.09s25.83-3.68,36.5-10.09c20.67-12.41,34.5-35.05,34.5-60.91C142,31.79,110.21,0,71,0h0Z"/>
      <g>
        <path class="cls-2" d="m28.09,97.83c-2.3,0-4.17-1.87-4.17-4.17v-18.01c0-1.57.88-3.02,2.24-3.7,6.04-3.01,12.54-4.54,19.34-4.54s13.31,1.53,19.34,4.54c1.36.68,2.24,2.13,2.24,3.7v18c0,2.3-1.87,4.17-4.17,4.17H28.09Z"/>
        <path class="cls-1" d="m45.5,68.92c6.56,0,12.84,1.47,18.67,4.38.86.43,1.41,1.35,1.41,2.36v18c0,1.47-1.2,2.67-2.67,2.67H28.08c-1.47,0-2.67-1.19-2.67-2.66v-18.01c0-1.01.55-1.93,1.41-2.36,5.83-2.91,12.11-4.38,18.67-4.38m0-3c-7.19,0-13.98,1.69-20.01,4.7-1.9.95-3.07,2.92-3.07,5.05v18.01c0,3.13,2.54,5.67,5.67,5.67h34.83c3.13,0,5.67-2.54,5.67-5.67v-18c0-2.12-1.17-4.1-3.07-5.05-6.03-3.01-12.82-4.7-20.01-4.7h0Z"/>
      </g>
      <g>
        <path class="cls-2" d="m45.82,61.78c-8.76,0-15.89-7.13-15.89-15.89s7.13-15.89,15.89-15.89,15.89,7.13,15.89,15.89-7.13,15.89-15.89,15.89Z"/>
        <path class="cls-1" d="m45.82,31.5c7.93,0,14.39,6.46,14.39,14.39s-6.46,14.39-14.39,14.39-14.39-6.46-14.39-14.39,6.46-14.39,14.39-14.39m0-3c-9.6,0-17.39,7.79-17.39,17.39s7.79,17.39,17.39,17.39,17.39-7.79,17.39-17.39-7.79-17.39-17.39-17.39h0Z"/>
      </g>
      <g>
        <path class="cls-2" d="m79.09,97.83c-2.3,0-4.17-1.87-4.17-4.17v-18.01c0-1.57.88-3.02,2.24-3.7,6.04-3.01,12.54-4.54,19.34-4.54s13.31,1.53,19.34,4.54c1.36.68,2.24,2.13,2.24,3.7v18c0,2.3-1.87,4.17-4.17,4.17h-34.83Z"/>
        <path class="cls-1" d="m96.5,68.92c6.56,0,12.84,1.47,18.67,4.38.86.43,1.41,1.35,1.41,2.36v18c0,1.47-1.2,2.67-2.67,2.67h-34.83c-1.47,0-2.67-1.19-2.67-2.66v-18.01c0-1.01.55-1.93,1.41-2.36,5.83-2.91,12.11-4.38,18.67-4.38m0-3c-7.19,0-13.98,1.69-20.01,4.7-1.9.95-3.07,2.92-3.07,5.05v18.01c0,3.13,2.54,5.67,5.67,5.67h34.83c3.13,0,5.67-2.54,5.67-5.67v-18c0-2.12-1.17-4.1-3.07-5.05-6.03-3.01-12.82-4.7-20.01-4.7h0Z"/>
      </g>
      <g>
        <path class="cls-2" d="m96.82,61.78c-8.76,0-15.89-7.13-15.89-15.89s7.13-15.89,15.89-15.89,15.89,7.13,15.89,15.89-7.13,15.89-15.89,15.89Z"/>
        <path class="cls-1" d="m96.82,31.5c7.93,0,14.39,6.46,14.39,14.39s-6.46,14.39-14.39,14.39-14.39-6.46-14.39-14.39,6.46-14.39,14.39-14.39m0-3c-9.6,0-17.39,7.79-17.39,17.39s7.79,17.39,17.39,17.39,17.39-7.79,17.39-17.39-7.79-17.39-17.39-17.39h0Z"/>
      </g>
      <g>
        <path class="cls-2" d="m53.59,112c-2.3,0-4.17-1.87-4.17-4.17v-18.01c0-1.57.88-3.02,2.24-3.7,6.04-3.01,12.54-4.54,19.34-4.54s13.3,1.53,19.34,4.54c1.36.68,2.24,2.13,2.24,3.7v18c0,2.3-1.87,4.17-4.17,4.17h-34.83Z"/>
        <path class="cls-1" d="m71,83.09c6.56,0,12.84,1.47,18.67,4.38.86.43,1.41,1.35,1.41,2.36v18c0,1.47-1.2,2.67-2.67,2.67h-34.83c-1.47,0-2.67-1.19-2.67-2.66v-18.01c0-1.01.55-1.93,1.41-2.36,5.83-2.91,12.11-4.38,18.67-4.38m0-3c-7.19,0-13.98,1.69-20.01,4.7-1.9.95-3.07,2.92-3.07,5.05v18.01c0,3.13,2.54,5.67,5.67,5.67h34.83c3.13,0,5.67-2.54,5.67-5.67v-18c0-2.12-1.17-4.1-3.07-5.05-6.03-3.01-12.82-4.7-20.01-4.7h0Z"/>
      </g>
      <g>
        <path class="cls-2" d="m71.32,75.95c-8.76,0-15.89-7.13-15.89-15.89s7.13-15.89,15.89-15.89,15.89,7.13,15.89,15.89-7.13,15.89-15.89,15.89Z"/>
        <path class="cls-1" d="m71.32,45.67c7.93,0,14.39,6.46,14.39,14.39s-6.46,14.39-14.39,14.39-14.39-6.46-14.39-14.39,6.46-14.39,14.39-14.39m0-3c-9.6,0-17.39,7.79-17.39,17.39s7.79,17.39,17.39,17.39,17.39-7.79,17.39-17.39-7.79-17.39-17.39-17.39h0Z"/>
      </g>
    </g>
  </g>
</svg>