<?xml version="1.0" encoding="UTF-8"?>
<svg id="Layer_2" data-name="Layer 2" xmlns="http://www.w3.org/2000/svg" viewBox="0 0 142 123.36">
  <g id="icons">
    <g id="CSPS_icon" data-name="CSPS icon" fill="#369">
      <path d="m.01,4.04c.19.08.31.13.43.2,3.17,1.8,6.55,2.95,10.16,3.46,2.38.33,4.77.36,7.17.19,4.46-.32,8.79-1.35,13.08-2.55,3.74-1.05,7.46-2.14,11.2-3.17,2.7-.75,5.44-1.34,8.21-1.73,3.12-.44,6.25-.58,9.39-.23,3.87.44,7.51,1.62,10.9,3.54.14.08.28.15.43.24.12-.06.25-.12.37-.19,3.4-1.94,7.05-3.14,10.94-3.58,2.62-.3,5.24-.25,7.86.03,4.39.47,8.64,1.57,12.88,2.77,3.73,1.06,7.46,2.13,11.21,3.15,2.88.78,5.8,1.34,8.77,1.64,5.38.55,10.63.04,15.62-2.18.91-.4,1.78-.88,2.67-1.33.14-.07.28-.14.47-.24.01.2.03.35.03.5,0,1.49,0,2.98,0,4.47,0,24.68,0,49.35,0,74.03,0,.14-.02.29,0,.43.04.29-.1.45-.35.58-3.07,1.73-6.34,2.9-9.83,3.43-3.29.5-6.57.44-9.86.03-3.95-.5-7.8-1.47-11.62-2.55-3.61-1.02-7.22-2.07-10.84-3.06-2.6-.72-5.24-1.26-7.91-1.63-2.96-.41-5.94-.53-8.92-.23-3.15.32-6.16,1.14-9.04,2.47-.14.07-.29.13-.44.19-.03.01-.07,0-.14,0-.04-.71-.08-1.43-.11-2.15-.13-3.1-.25-6.2-.36-9.3-.01-.31,0-.65.09-.94.28-.94,1.23-1.48,2.22-1.31,2.01.35,4.01.71,6.02,1.07,3.26.58,6.53,1.17,9.79,1.75.15.03.31.04.53.07-.05-.19-.07-.34-.12-.48-.65-1.95-1.31-3.9-1.97-5.84-.33-.98-.18-1.5.62-2.14,5.64-4.51,11.27-9.03,16.91-13.54.14-.11.27-.23.45-.37-.17-.1-.3-.18-.43-.25-.76-.38-1.52-.76-2.28-1.14-1.06-.53-1.31-1.09-1.01-2.25.9-3.5,1.8-7,2.7-10.5.05-.2.1-.41.16-.66-.16.02-.28.01-.39.04-2.81.67-5.62,1.35-8.43,2.02-.29.07-.6.15-.89.12-.66-.07-1.08-.47-1.35-1.07-.68-1.5-1.37-3-2.05-4.5-.07-.16-.15-.32-.26-.53-.13.13-.25.22-.35.33-2.55,2.81-5.11,5.62-7.66,8.43-.14.16-.28.32-.43.47-.52.5-1.3.6-1.92.25-.62-.35-.89-.98-.74-1.73.21-1.02.44-2.04.66-3.07,1.14-5.34,2.29-10.67,3.43-16.01.01-.07.01-.14.02-.28-.2.11-.35.18-.49.27-1.83,1.09-3.65,2.19-5.47,3.28-.36.22-.73.37-1.16.31-.57-.08-.98-.39-1.25-.89-.39-.73-.78-1.47-1.17-2.21-1.65-3.12-3.31-6.23-4.96-9.35-.08-.15-.17-.3-.29-.51-.13.22-.23.37-.31.54-1.99,3.74-3.97,7.48-5.96,11.23-.07.14-.14.29-.23.42-.43.72-1.27.98-2.03.63-.18-.08-.34-.19-.51-.29-1.73-1.04-3.47-2.08-5.2-3.12-.16-.1-.33-.18-.59-.32.11.55.21,1.02.31,1.48,1.27,5.94,2.53,11.89,3.83,17.83.21.98-.54,2.17-1.83,1.98-.43-.06-.73-.33-1.01-.63-1.14-1.26-2.29-2.52-3.44-3.78-1.49-1.64-2.98-3.28-4.47-4.92-.09-.1-.17-.22-.31-.4-.13.26-.21.43-.29.6-.7,1.51-1.39,3.03-2.08,4.54-.23.52-.59.9-1.16.99-.25.04-.53.02-.78-.04-2.16-.51-4.31-1.03-6.46-1.54-.84-.2-1.68-.4-2.58-.62.02.17.02.28.05.39.91,3.57,1.83,7.14,2.74,10.71.03.1.05.21.08.31.22.92-.06,1.53-.92,1.97-.77.39-1.55.78-2.33,1.17-.16.08-.31.16-.53.28.17.15.3.27.45.39,5.62,4.5,11.24,9.01,16.86,13.51.83.67.99,1.19.65,2.19-.65,1.93-1.3,3.86-1.95,5.8-.05.15-.08.3-.15.53.47-.08.88-.14,1.3-.21,3.51-.62,7.01-1.25,10.52-1.88,1.47-.26,2.94-.48,4.4-.8,1.31-.28,2.54.72,2.47,2.1-.17,3.22-.28,6.45-.41,9.67-.03.64-.05,1.27-.07,1.95-.14-.04-.26-.06-.37-.11-2.63-1.24-5.39-2.06-8.28-2.46-2.33-.32-4.67-.35-7.01-.19-4.88.34-9.58,1.54-14.26,2.86-3.77,1.06-7.53,2.15-11.31,3.18-2.55.69-5.14,1.2-7.77,1.52-4.84.6-9.63.42-14.31-1.11-1.84-.61-3.6-1.4-5.29-2.34-.26-.15-.42-.31-.37-.62.02-.1,0-.21,0-.32,0-26.11,0-52.23,0-78.34v-.74Z"/>
      <path d="m141.99,92.75c0,.28,0,.45,0,.62,0,2.57-.01,5.14.01,7.72,0,.42-.15.63-.5.82-3.39,1.89-7,3.07-10.86,3.51-2.62.3-5.24.25-7.86-.04-4.51-.49-8.88-1.63-13.23-2.87-3.63-1.03-7.26-2.07-10.9-3.06-2.57-.7-5.18-1.2-7.82-1.52-4.79-.58-9.52-.4-14.15,1.12-1.81.59-3.54,1.36-5.2,2.29-.15.09-.31.17-.47.26-.7-.36-1.38-.73-2.08-1.08-3.19-1.56-6.55-2.47-10.09-2.77-2.86-.24-5.71-.1-8.54.3-4.45.62-8.77,1.84-13.08,3.07-3.44.98-6.89,1.95-10.35,2.87-2.54.67-5.12,1.13-7.74,1.41-4.92.53-9.74.19-14.41-1.54-1.5-.55-2.94-1.23-4.34-2.01-.23-.13-.39-.25-.39-.56.01-2.75,0-5.5,0-8.25,0-.07.02-.13.03-.25.19.09.34.16.49.24,3.22,1.81,6.66,2.96,10.33,3.44,2.15.28,4.31.32,6.48.18,4.43-.28,8.73-1.26,12.99-2.44,3.74-1.04,7.46-2.13,11.2-3.18,2.8-.78,5.64-1.42,8.52-1.84,2.92-.43,5.86-.6,8.81-.34,4.14.37,8.03,1.54,11.64,3.6.38.22.64.2,1.01,0,3.29-1.87,6.83-3.02,10.59-3.48,2.4-.29,4.81-.29,7.22-.08,4.58.41,9.01,1.52,13.42,2.76,3.62,1.02,7.22,2.07,10.84,3.06,2.89.79,5.83,1.39,8.81,1.74,4.69.55,9.31.34,13.84-1.12,1.81-.59,3.54-1.35,5.2-2.28.15-.09.31-.17.56-.31Z"/>
      <path d="m71.02,119.35c-.77-.39-1.5-.79-2.25-1.15-3.01-1.46-6.19-2.32-9.52-2.66-2.81-.28-5.6-.17-8.39.19-4.45.57-8.75,1.75-13.05,2.97-3.53,1-7.06,2-10.6,2.95-2.78.74-5.6,1.25-8.47,1.53-5.82.57-11.43-.13-16.73-2.74-.67-.33-1.32-.69-1.98-1.04v-8.85c.15.06.27.1.39.16,2.86,1.62,5.91,2.74,9.16,3.3,2.35.41,4.72.54,7.1.42,4.62-.22,9.09-1.22,13.52-2.45,3.72-1.03,7.43-2.12,11.15-3.16,2.78-.78,5.6-1.42,8.46-1.85,3.12-.47,6.25-.64,9.39-.34,3.99.39,7.73,1.56,11.23,3.52.18.1.37.21.55.31.59-.31,1.15-.61,1.71-.9,3.36-1.7,6.93-2.68,10.69-2.97,2.99-.23,5.95-.05,8.91.4,4.23.64,8.34,1.8,12.45,2.97,3.56,1.01,7.13,2.01,10.71,2.95,2.78.73,5.62,1.2,8.48,1.44,6.24.52,12.15-.52,17.64-3.65.1-.06.22-.1.38-.18.01.22.03.39.03.56,0,2.59,0,5.18.01,7.77,0,.39-.14.59-.47.78-3.35,1.87-6.93,3.06-10.75,3.5-2.55.3-5.1.27-7.65.02-4.34-.43-8.55-1.48-12.73-2.66-3.73-1.05-7.46-2.13-11.2-3.16-2.69-.74-5.41-1.29-8.18-1.64-2.91-.37-5.83-.47-8.76-.12-3.81.45-7.4,1.61-10.75,3.5-.17.09-.34.19-.49.27Z"/>
    </g>
  </g>
</svg>