<?xml version="1.0" encoding="UTF-8"?>
<svg id="Layer_2" data-name="Layer 2" xmlns="http://www.w3.org/2000/svg" viewBox="0 0 142 132.43">
  <g id="icons">
    <g id="learning_icon" data-name="learning icon">
      <path d="m133.24,9.66v102.82h-25.96c-1.41,0-2.8.22-4.15.65l-32.05,10.34-32.05-10.34c-1.35-.43-2.74-.65-4.15-.65H8.76V9.66l60.14,13.47,1.91.43,1.91-.43,60.53-13.48m3.08-9.66l-65.52,14.59L5.67,0C2.54,0,0,3.07,0,6.86v107.51c0,3.79,2.54,6.86,5.67,6.86h29.22c.49,0,.98.08,1.46.23l33.28,10.73c.48.15.97.23,1.46.23s.98-.08,1.46-.23l33.28-10.73c.48-.15.97-.23,1.46-.23h29.04c3.13,0,5.67-3.07,5.67-6.86V6.86c0-3.79-2.54-6.86-5.67-6.86h0Z"/>
      <path d="m121.75,24.48v79.84l-50.67-3.17-.27-.02-.27.02-50.66,3.17V24.48l50.1,9.79.84.16.84-.16,50.1-9.79m1.53-4.76l-52.47,10.26-52.47-10.26c-1.57,0-2.85,1.45-2.85,3.25v82.58c0,1.79,1.27,3.25,2.85,3.25l52.47-3.28,52.47,3.28c1.57,0,2.85-1.45,2.85-3.25V22.97c0-1.79-1.27-3.25-2.85-3.25h0Z"/>
      <g>
        <line x1="27.39" y1="47.95" x2="57.29" y2="47.95"/>
        <path d="m57.67,50.11c-.12.02-.25.03-.38.03h-29.9c-1.21,0-2.19-.98-2.19-2.19,0-1.21.98-2.19,2.19-2.19h29.9c1.21,0,2.19.98,2.19,2.19,0,1.08-.78,1.97-1.81,2.16Z"/>
      </g>
      <g>
        <line x1="27.39" y1="66.22" x2="57.29" y2="66.22"/>
        <path d="m57.29,68.41h-29.9c-1.21,0-2.19-.98-2.19-2.19s.98-2.19,2.19-2.19h29.9c1.21,0,2.19.98,2.19,2.19s-.98,2.19-2.19,2.19Z"/>
      </g>
      <g>
        <line x1="27.39" y1="84.48" x2="57.29" y2="84.48"/>
        <path d="m27,86.64c-1.03-.18-1.81-1.08-1.81-2.15,0-1.21.98-2.19,2.19-2.19h29.9c1.21,0,2.19.98,2.19,2.19,0,1.21-.98,2.19-2.19,2.19h-29.9c-.13,0-.26-.01-.38-.03Z"/>
      </g>
      <g>
        <line x1="84.34" y1="47.95" x2="114.24" y2="47.95"/>
        <path d="m83.96,50.11c-1.03-.18-1.81-1.08-1.81-2.16,0-1.21.98-2.19,2.19-2.19h29.9c1.22,0,2.19.98,2.19,2.19,0,1.21-.98,2.19-2.19,2.19h-29.9c-.13,0-.26-.01-.38-.03Z"/>
      </g>
      <g>
        <line x1="84.34" y1="66.22" x2="114.24" y2="66.22"/>
        <path d="m114.24,68.41h-29.9c-1.21,0-2.19-.98-2.19-2.19s.98-2.19,2.19-2.19h29.9c1.21,0,2.19.98,2.19,2.19s-.98,2.19-2.19,2.19Z"/>
      </g>
      <g>
        <line x1="84.34" y1="84.48" x2="114.24" y2="84.48"/>
        <path d="m114.62,86.64c-.12.02-.25.03-.38.03h-29.9c-1.21,0-2.19-.98-2.19-2.19,0-1.21.97-2.18,2.19-2.19h29.9c1.21,0,2.19.98,2.19,2.19,0,1.08-.78,1.97-1.81,2.15Z"/>
      </g>
      <rect x="68.62" y="29.97" width="4.38" height="75.55"/>
    </g>
  </g>
</svg>