<?xml version="1.0" encoding="UTF-8"?>
<svg id="Layer_2" data-name="Layer 2" xmlns="http://www.w3.org/2000/svg" viewBox="0 0 142 142">
  <defs>
    <style>
      .cls-1 {
        fill: none;
        stroke: #000;
        stroke-linecap: round;
        stroke-linejoin: round;
        stroke-width: 4px;
      }

      .cls-2 {
        fill-rule: evenodd;
      }
    </style>
  </defs>
  <g id="icons">
    <g id="self_assesment_icon" data-name="self assesment icon">
      <path d="m71,8c34.74,0,63,28.26,63,63s-28.26,63-63,63S8,105.74,8,71,36.26,8,71,8m0-8C31.79,0,0,31.79,0,71s31.79,71,71,71,71-31.79,71-71S110.21,0,71,0h0Z"/>
      <path d="m99.93,37.18v79.82h-57.86V37.18h57.86m0-4h-57.86c-2.21,0-4,1.79-4,4v79.82c0,2.21,1.79,4,4,4h57.86c2.21,0,4-1.79,4-4V37.18c0-2.21-1.79-4-4-4h0Z"/>
      <g>
        <path class="cls-2" d="m54.2,45.16c-1.04,0-1.56-.7-1.73-1-.16-.28-.48-1-.09-1.83l16.77-18.14.11-.19c.52-.9,1.39-1,1.73-1s1.21.1,1.73,1l.11.19,16.77,18.14c.39.83.08,1.55-.09,1.83-.17.3-.69,1-1.73,1h-33.59Z"/>
        <path d="m71,25l.22.39.3.33,16.14,17.45h-33.32l16.14-17.45.29-.33.22-.39s0,0,.02,0m0-4c-1.35,0-2.69.67-3.46,2l-16.8,18.17c-1.54,2.67.38,6,3.46,6h33.59c3.08,0,5-3.33,3.46-6l-16.8-18.17c-.77-1.33-2.12-2-3.46-2h0Z"/>
      </g>
      <polyline class="cls-1" points="52.43 84.93 62.76 98.98 89.57 57.02"/>
    </g>
  </g>
</svg>