<?xml version="1.0" encoding="UTF-8"?>
<svg id="Layer_2" data-name="Layer 2" xmlns="http://www.w3.org/2000/svg" viewBox="0 0 142 142">
  <defs>
    <style>
      .cls-1 {
        fill-rule: evenodd;
      }
    </style>
  </defs>
  <g id="icons">
    <g id="urgent_icon" data-name="urgent icon">
      <path d="m71,8c34.74,0,63,28.26,63,63s-28.26,63-63,63S8,105.74,8,71,36.26,8,71,8m0-8C31.79,0,0,31.79,0,71s31.79,71,71,71,71-31.79,71-71S110.21,0,71,0h0Z"/>
      <g>
        <path class="cls-1" d="m77.61,89h-13.22c-1.06,0-1.94-.83-2-1.89l-5.77-64c-.06-1.15.85-2.11,2-2.11h24.77c1.15,0,2.06.97,2,2.11l-5.77,64c-.06,1.06-.94,1.89-2,1.89Z"/>
        <circle cx="71" cy="109" r="12"/>
      </g>
    </g>
  </g>
</svg>