<?xml version="1.0" encoding="UTF-8"?><svg xmlns="http://www.w3.org/2000/svg" viewBox="0 0 63.14 89.71"><defs><style>.ab{fill:#1820bf;}.ac{fill:#ff4133;}.ad{fill:#dcae92;}.ae{fill:#e53a2e;}.af{fill:#c21b15;}.ag{fill:#191847;}.ah{fill:#c7d1d9;}.ai{fill:#b58143;}.aj{fill:#2b44ff;}</style></defs><g id="a"><g id="b"/><g id="c"/><g id="d"/><g id="e"/></g><g id="f"><g id="g"/><g id="h"/><g id="i"/><g id="j"/></g><g id="k"><g id="l"/><g id="m"/><g id="n"/><g id="o"/></g><g id="p"><g id="q"/><g id="r"/><g id="s"/><g id="t"/><g id="u"/><g id="v"/><g id="w"/><g id="x"/><g id="y"/><g id="a`"/></g><g id="aa"><polygon class="ad" points="34.99 82.34 35.75 86.48 39.67 86.37 39.2 82.05 34.99 82.34"/><path class="ab" d="M36.29,37.74l1.24,5.78c1.71,9.55,2.74,19.22,3.06,28.92l-.22,10.3h-5.55l-11.89-44.54,11.69-.46"/><path class="ag" d="M34.93,85.48l-.11,3.54c0,.09,.02,.18,.07,.26l.1,.16c.08,.13,.23,.21,.39,.21h12.56l.2-.87s.26-.4-.2-.71l-2.02-.4c-1.25-.25-2.46-.64-3.61-1.19-1-.48-2.07-1.05-2.35-1.44l-5.03,.44Z"/><polygon class="ad" points="15.1 82.66 13.99 86.19 18.04 86.63 19.39 82.83 15.1 82.66"/><path class="aj" d="M34.55,37.71l-2.42,10.14c-1.79,7.47-4.04,14.81-6.76,21.99l-5.02,13.31h-6.21l4.3-21.1,1.67-23.74,14.44-.59Z"/><path class="ag" d="M13.68,85.53l-.11,3.54c0,.09,.02,.18,.07,.26l.1,.16c.08,.13,.23,.21,.39,.21h12.56l.2-.87s.26-.4-.2-.71l-2.02-.4c-1.25-.25-2.46-.64-3.61-1.19-1-.48-2.07-1.05-2.35-1.44l-5.03,.44Z"/><path class="ad" d="M12.55,45.39s.12,.96-.73,2.32c0,0-1.97,2.16-4.08,3.69-.35,.25-.36,.78,0,1.03s1.09,.42,2.52,.14l2.2-1.24s.98-.59,1.64,.08l.68,.57c.19,.16,.43,.25,.68,.23h.01c.16-.02,.24-.19,.17-.33-.33-.62-1.42-2.9-.58-4.59l.9-1.96"/><path class="ad" d="M47.16,39.5s.42,.18,.75,.27c.27,.08,.52,.23,.73,.42l2.51,2.33s.9,.72,.61-.41c-.04-.16-.12-.3-.22-.43-.11-.15-.18-.41,.26-.66,.22-.13,.48-.18,.74-.18l1.9,.03s1.04,.05,.39-.58c-.19-.19-.43-.33-.68-.43-.58-.24-1.96-.78-3.61-1.25-.3-.09-.59-.23-.84-.42l-1.07-.83-1.48,2.15"/><path class="ad" d="M32.29,.66c.18-.02,1.61,1.96,1.68,2.13,.46,1.23,.87,5.4,.43,7.32-.04,.19-.11,.37-.15,.56-.15,.63-.76,1.15-2.37,.91-.28-.04-.56-.21-.68-.26-.35-.15-.22-.1-1.28-.6l-.15,2.03-3.59-.56,.88-3.73-1.24-6.49s1.97-.87,6.49-1.31Z"/><path class="ai" d="M27.43,2.6l4.32-.08c.6-.01,1.2-.08,1.78-.22h.06c.13-.04,.2-.17,.16-.3-.18-.54-.85-1.88-3.07-1.96,0,0-1.81-.19-3.06,.25h-.02c-.11,.05-1.26,.55-1.87,1.26,0,0-.7,.8-.84,2.2,0,0-.3,2,.59,3.11,0,0,.35,.65,1.29,1.42,.04,.04,.1,.05,.15,.05,.16,0,.49-.07,.49-.4,0-.14-.06-.27-.15-.37-.11-.12-.27-.33-.28-.58-.02-.38,.09-2.35,1.69-1.49,0,0,.48-1.09,1.39-1.07,0,0,.26-.52-.43-1.28,0,0-2.32-.04-2.4-.19h0c-.1-.14,0-.35,.18-.35Z"/><path class="af" d="M31.2,13.69s5.26,5.84,6.6,9.07c0,0,4.39,7.88,6.19,9.63,.27,.26,.54,.53,.79,.82,1.08,1.22,3.62,4,4.55,4.29l-2.1,2.71s-7.65-1.48-9.55-3.66c0,0-8.45-20.49-6.48-22.85Z"/><path class="ah" d="M27.83,12.19s2.56,.45,3.27,.37c0,0,.53,7.86,2.93,13.31s3.39,9.1,3.64,11.07c.04,.33-.13,.65-.46,.71h-6.38l-2.99-25.46Z"/><path class="ac" d="M27.79,12.05s2.32,8.11,2.54,9.96c0,0,1.97,11.13,1.89,13.56,0,0,.19,5.6-.77,6.81h-13.61s-1.56,3.75-2.19,4.81h-3.75s.22-12.6,2.57-16.81c0,0,3.17-8.69,5.96-11.97,0,0-2.54-.3-3.12-3.44,0,0-1.56-4.83,4.54-3.58,0,0,2.11,.57,5.93,.67Z"/><path class="ae" d="M20.76,34.46s1.12,7.16,1.91,7.93h-4.84l2.93-7.93Z"/></g></svg>