<?xml version="1.0" encoding="UTF-8"?>
<svg xmlns="http://www.w3.org/2000/svg" viewBox="0 0 338.33 348.77"><defs><style>.d{fill:#662d91;}.e{fill:#fff;}.e,.f{stroke:#662d91;stroke-miterlimit:10;}.f{fill:none;}</style></defs><g id="a"/><g id="b"><g id="c"><path class="f" d="M167.99,262.45c3.64,1.21,78.91,8.5,78.91,8.5,0,0-10.32-26.1-5.46-31.56,4.86-5.46,78.91-62.61,78.91-62.61,0,0-27.32-10.23-20.64-16.91l13.96-50.38s-45.53,10.93-48.56,9.11-7.89-8.5-9.11-24.89c0,0-40.06,50.99-44.92,43.71,0,0-12.75,7.89,12.14-91.05,0,0-24.28,13.35-29.74,11.53-5.46-1.82-20.09-31.49-32.78-55.76v-.09l-.02,.04-.02-.04v.09c-12.69,24.26-27.32,53.94-32.78,55.76-5.46,1.82-29.74-11.53-29.74-11.53,24.89,98.94,12.14,91.05,12.14,91.05-4.86,7.28-44.92-43.71-44.92-43.71-1.21,16.39-6.07,23.07-9.11,24.89S7.69,109.48,7.69,109.48l13.96,50.38c6.68,6.68-20.64,16.91-20.64,16.91,0,0,74.06,57.15,78.91,62.61,4.86,5.46-5.46,31.56-5.46,31.56,0,0,75.27-7.28,78.91-8.5s-3.08,85.59-3.08,85.59h20.77s-6.72-86.8-3.08-85.59Z"/><path class="e" d="M176.99,262.68c3.64,1.21,78.91,8.5,78.91,8.5,0,0-10.32-26.1-5.46-31.56,4.86-5.46,78.91-62.61,78.91-62.61,0,0-27.32-10.23-20.64-16.91l13.96-50.38s-45.53,10.93-48.56,9.11-7.89-8.5-9.11-24.89c0,0-40.06,50.99-44.92,43.71,0,0-12.75,7.89,12.14-91.05,0,0-24.28,13.35-29.74,11.53-5.46-1.82-20.09-31.49-32.78-55.76v-.09l-.02,.04-.02-.04v.09c-12.69,24.26-27.32,53.94-32.78,55.76-5.46,1.82-29.74-11.53-29.74-11.53,24.89,98.94,12.14,91.05,12.14,91.05-4.86,7.28-44.92-43.71-44.92-43.71-1.21,16.39-6.07,23.07-9.11,24.89s-48.56-9.11-48.56-9.11l13.96,50.38c6.68,6.68-20.64,16.91-20.64,16.91,0,0,74.06,57.15,78.91,62.61,4.86,5.46-5.46,31.56-5.46,31.56,0,0,75.27-7.28,78.91-8.5s-3.08,85.59-3.08,85.59h20.77s-6.72-86.8-3.08-85.59Z"/><path class="d" d="M185.97,262.88c3.64,1.21,78.91,8.5,78.91,8.5,0,0-10.32-26.1-5.46-31.56,4.86-5.46,78.91-62.61,78.91-62.61,0,0-27.32-10.23-20.64-16.91l13.96-50.38s-45.53,10.93-48.56,9.11-7.89-8.5-9.11-24.89c0,0-40.06,50.99-44.92,43.71,0,0-12.75,7.89,12.14-91.05,0,0-24.28,13.35-29.74,11.53-5.46-1.82-20.09-31.49-32.78-55.76v-.09l-.02,.04-.02-.04v.09c-12.69,24.26-27.32,53.94-32.78,55.76-5.46,1.82-29.74-11.53-29.74-11.53,24.89,98.94,12.14,91.05,12.14,91.05-4.86,7.28-44.92-43.71-44.92-43.71-1.21,16.39-6.07,23.07-9.11,24.89s-48.56-9.11-48.56-9.11l13.96,50.38c6.68,6.68-20.64,16.91-20.64,16.91,0,0,74.06,57.15,78.91,62.61,4.86,5.46-5.46,31.56-5.46,31.56,0,0,75.27-7.28,78.91-8.5s-3.08,85.59-3.08,85.59h20.77s-6.72-86.8-3.08-85.59Z"/></g></g></svg>