<?xml version="1.0" encoding="UTF-8"?><svg xmlns="http://www.w3.org/2000/svg" viewBox="0 0 63.14 89.71"><defs><style>.ab{fill:#77d692;}.ac{fill:#b28b67;}.ad{fill:#393f82;}.ae{fill:#e4e4e4;}.af{fill:#a8e5ba;}.ag{fill:#191847;}.ah{fill:#97cea7;}.ai{fill:#2c1b18;}</style></defs><g id="a"><g id="b"/><g id="c"/><g id="d"/><g id="e"/></g><g id="f"><g id="g"/><g id="h"/><g id="i"/><g id="j"/></g><g id="k"><g id="l"/><g id="m"/><g id="n"/><g id="o"/></g><g id="p"><g id="q"/><g id="r"/><g id="s"/><g id="t"/><g id="u"/><g id="v"/><g id="w"/><g id="x"/><g id="y"/><g id="a`"/></g><g id="aa"><g><polygon class="ac" points="43.46 83.41 44.46 87.51 47.12 87.03 46.57 82.66 43.46 83.41"/><path class="ae" d="M43.54,86.86c-.15,.52-.4,1.63-.05,2.49,.06,.16,.22,.26,.39,.26l10.82,.1s.17,.01,.3-.18c.07-.1,.11-.23,.11-.36v-.77c0-.1-.02-.21-.09-.28-.06-.06-.15-.12-.29-.13-.19-.02-.37-.04-.55-.1-1.45-.48-7.03-2.38-6.98-2.57,0,0-.07,2.28-2.97,1.1l-.3,.08c-.18,.05-.33,.18-.38,.36Z"/><polygon class="ag" points="26.88 41.25 37.24 40.96 47.39 83.91 34.56 85.32 26.88 41.25"/><polygon class="ac" points="9.73 73.52 6.5 76.23 8.11 78.4 11.78 75.96 9.73 73.52"/><path class="ae" d="M6,75.62c-.5,.21-1.52,.71-1.96,1.53-.08,.15-.07,.33,.04,.46l6.75,8.46s.1,.14,.33,.12c.13,0,.25-.06,.34-.14l.6-.48c.08-.06,.14-.15,.15-.25,.01-.09,0-.19-.08-.31-.11-.16-.2-.32-.27-.49-.55-1.43-2.59-6.95-2.41-7.04,0,0-1.82,1.39-2.73-1.6l-.25-.19c-.15-.11-.35-.14-.52-.07Z"/><path class="ad" d="M23.22,41.29h13.42s-1.01,10.5-1.42,11.95c0,0-1.34,7.92-1.73,8.7,0,0-.15,1.55-2.3,4.41,0,0-12.35,15.8-13.67,16.65l-8.39-9.96,13.46-14.95,.62-16.8Z"/><path class="ac" d="M13.36,48.85s.1,.91-.72,2.18c0,0-1.89,2.01-3.91,3.42-.33,.23-.35,.73-.02,.98s1.03,.41,2.38,.17l2.09-1.14s.93-.54,1.55,.1l.63,.55c.18,.15,.4,.24,.64,.22h0c.15-.02,.23-.18,.16-.31-.3-.59-1.3-2.76-.49-4.34l.88-1.84"/><path class="ac" d="M51.21,33.36s.4-.15,.69-.29c.24-.12,.5-.18,.77-.18h3.24s1.09-.08,.15-.67c-.13-.08-.28-.13-.42-.16-.17-.03-.39-.16-.24-.62,.07-.23,.21-.44,.4-.6l1.33-1.2s.75-.63-.1-.65c-.26,0-.51,.05-.75,.14-.55,.21-1.86,.72-3.3,1.45-.27,.13-.55,.22-.85,.24l-1.27,.11,.36,2.43"/><path class="ac" d="M35.93,9.3s1.2,4.92,.71,7.07c-.04,.18-.1,.35-.15,.53-.14,.57-.6,1.7-2.11,1.05-.19-.08-.39-.14-.6-.2-.23-.06-.71-.26-1.71-.81l.55,2.41-3.44-.96,1.72-9.29s4.72,.48,5.02,.21Z"/><path class="ai" d="M2.62,2.65c-1.09,1.31-.76,4.5,1.37,5.93,1.72,1.16,5.02,.31,6.99-.38,.82-.29,1.82-.68,2.98-1.22,.5-.23,.97-.53,1.41-.87,.63-.49,1.92-1.11,3.51,.18,.75,.6,1.68,.94,2.64,.95s2.28-.14,4.05-.67c.17-.05,.34-.09,.51-.12,.78-.12,2.89-.34,3.67,.7,0,0,0-.07,0-.2-.12-3.12-3.79-6.62-6.85-5.99-1.94,.4-4.03,2.04-5.98,1.43-1.14-.36-2.3-.61-3.49-.68-.66-.04-2.3-1.23-3.29-1.52C7.78-.5,4.19,.76,2.62,2.65Z"/><path class="ai" d="M32.15,12.4s2.55-1.51,2.75-2.34c0,0,2.2-.2,.83-1.48,0,0-1.37-1.79-5.98-1.43,0,0-2.62,.29-3.17,3.73,0,0-.69,3.1,2.2,4.27,0,0,2.68,.55,1.51-1.24,0,0-.41-2.27,1.86-1.51Z"/><path class="ab" d="M34.29,19.75s3.25,11.87,10.97,11.17h5.6l1.47,10.04s-3.23,.9-7.9-.15c-5.63-1.27-7.82-1.91-9.73-5.52s-.41-15.53-.41-15.53Z"/><path class="af" d="M28.98,18.29s5.09,1.31,5.75,1.27c0,0,.12,6.34,1.69,11.97,1.27,4.58,2.68,8.02,2.68,9.94h-14.35s3.1-21.06,4.23-23.19Z"/><path class="ah" d="M26.92,28.31s.07,11.73,.69,13.18h-2.86s1.48-12.8,2.17-13.18Z"/><path class="af" d="M28.98,18.29s-4.27,22.61-4.23,23.19c.02,.37,0,.43,0,.8v6.56H13.36s4.16-17.68,9.43-23.5c0,0,5.23-6.4,6.19-7.05Z"/></g></g></svg>