<?xml version="1.0" encoding="UTF-8"?><svg xmlns="http://www.w3.org/2000/svg" viewBox="0 0 63.14 89.71"><defs><style>.ab{fill:#915b3c;}.ac{fill:#c5cfd6;}.ad{fill:#342a83;}.ae{fill:#e4e4e4;}.af{fill:#2c1b18;}.ag{fill:#2a0752;}.ah{fill:#f2f2f2;}</style></defs><g id="a"><g id="b"/><g id="c"/><g id="d"/><g id="e"/></g><g id="f"><g id="g"/><g id="h"/><g id="i"/><g id="j"/></g><g id="k"><g id="l"/><g id="m"/><g id="n"/><g id="o"/></g><g id="p"><g id="q"/><g id="r"/><g id="s"/><g id="t"/><g id="u"/><g id="v"/><g id="w"/><g id="x"/><g id="y"/><g id="a`"/></g><g id="aa"><path class="ag" d="M22.99,59.19s7.43,2.51,15.08,2.02c0,0,3.38-.49,7.14-2.49,0,0-7.21,.39-10.41-.58s-10.94-.53-11.81,1.06Z"/><path class="ab" d="M44.41,58.56s6.07,26.76,6,27.81l-2.71,.58s-7.27-20.25-7.12-23.62l-2.57-4.77h6.41Z"/><path class="ab" d="M33.64,58.3s-1.02,6.18-1.1,6.31c-.2,.32-.3,.62-1.16,.93-.2,.07-.41,.12-.63,.16l-25.56,3.98-.22-3.04s21.27-5.53,22.35-5.32v-3.57s4.79-.87,6.31,.54Z"/><path class="ae" d="M4.97,65.85c-.57-.06-1.76-.1-2.58,.43-.15,.1-.23,.27-.2,.45l1.98,11.2s.02,.17,.24,.28c.12,.06,.26,.07,.39,.04l.79-.14c.11-.02,.21-.07,.27-.16,.05-.07,.1-.18,.08-.33-.02-.2-.03-.39,0-.59,.21-1.59,1.11-7.72,1.32-7.71,0,0-2.37,.37-1.71-2.85l-.14-.3c-.08-.18-.25-.3-.45-.32Z"/><path class="ae" d="M46.62,86.49c-.12,.56-.28,1.74,.16,2.61,.08,.16,.25,.26,.43,.24l11.34-.83s.17,0,.3-.21c.07-.11,.09-.25,.08-.38l-.06-.8c0-.11-.05-.21-.13-.29-.07-.06-.17-.11-.32-.12-.2,0-.4-.01-.59-.06-1.56-.37-7.57-1.88-7.54-2.09,0,0,.13,2.4-3.01,1.41l-.31,.1c-.19,.06-.33,.22-.37,.41Z"/><path class="ad" d="M24.28,43.75l16.76-2.27s6.93,13.06,5.16,16.93c0,0-3.88,1.77-12.42,0,0,0-7.73-1.65-10.79,.79,0,0-2.42-5.11,1.29-15.44"/><path class="ab" d="M16.65,46.11s.12,.96-.72,2.3c0,0-1.96,2.14-4.05,3.66-.35,.25-.36,.78,0,1.03s1.08,.42,2.5,.14l2.18-1.23s.97-.58,1.63,.08l.67,.57c.19,.16,.43,.25,.67,.23h.01c.16-.02,.24-.19,.17-.33-.33-.62-1.41-2.88-.58-4.55l.89-1.95"/><path class="ab" d="M51.8,42.02s.39,.24,.69,.38c.25,.12,.47,.3,.65,.52l2.1,2.68s.77,.85,.66-.31c-.02-.16-.07-.31-.14-.45-.08-.16-.12-.43,.36-.6,.24-.09,.5-.11,.75-.06l1.86,.33s1.01,.21,.48-.5c-.16-.22-.37-.39-.6-.53-.53-.32-1.8-1.07-3.34-1.79-.28-.13-.54-.32-.75-.55l-.92-.98-1.78,1.87"/><path class="ab" d="M38.14,6.36c.18,0,1.07,.62,1.14,.79,.53,1.18,.94,5.33,.5,7.23-.04,.19-.11,.37-.15,.56-.15,.62-.67,1.87-2.4,1.02-.12-.06-.42-.23-.54-.27-.34-.12-.21-.07-1.36-.71l-.03,1.71-2.96-.56v-5.56l.39-4.58s4.18,.34,5.41,.37Z"/><path class="af" d="M39.52,7.09c.11,.15,.06,.37-.1,.46-.38,.23-1.18,.61-2.55,.9,0,0-1.29,.09-1.9,2.09,0,0-.14-.04-.79-.26-.38-.13-.81-.11-1.16,.1-.42,.25-.75,.77-.25,1.84,0,0,.23,.52,.71,.91,0,0-.18,.58-.83,.87,0,0-3.24,.14-3.35-2.65,0,0-.11-3.26,1.23-4.5,0,0-4.63-3.02-1.38-5.47,.13-.1,.24-.21,.33-.34,.32-.47,1.25-1.55,2.48-.74,.18,.12,.41,.16,.62,.12,.83-.16,2.86-.12,2.41,4.35,0,0,2.85-.05,4.52,2.32Z"/><path class="ac" d="M36.07,20.35c-.13-.5,.55-.78,.81-.34,1.43,2.44,3.6,5.67,6.04,7.66,0,0,8.27,6.5,10.56,9.02,.09,.1,.18,.19,.27,.29,.26,.26,.95,1.16,.45,3.08-.02,.08-.07,.16-.13,.22l-1.93,1.74c-.09,.08-.2,.12-.32,.11-.31-.02-1-.04-1.75,.07-.56,.08-1.13-.07-1.59-.39-1.89-1.34-6.64-4.96-9.14-9.08-.02-.04-.04-.08-.05-.12l-3.22-12.25Z"/><path class="ah" d="M30.4,15.38l6.81,.82s-.35,3.94-.2,4.91c.03,.19,.06,.38,.08,.57,.16,1.79,1.02,9.1,4.74,13.99,4.27,5.61-2.78,9.4-2.78,9.4,0,0-4.45,2.39-8.28,2.64,0,0-7.31,1.77-6.8-7.81,0,0-1.48,4.05-1.48,4.92,0,0-.36,1.06-2.04,2.32-.62,.46-1.42,.61-2.16,.41l-1.68-.46s-.07-.06-.06-.1c.07-.26,.25-1.08-.2-1.29,0,0-.69-.25-.75-2.06-.02-.71,.07-1.41,.24-2.1,.66-2.56,2.97-11.2,4.53-13.03,.18-.22,.36-.44,.53-.67,1.62-2.35,8.91-12.87,9.52-12.45Z"/></g></svg>